<svg id="alarm" xmlns="http://www.w3.org/2000/svg"><path fill="#95E1D3" paint-order="stroke fill markers" fill-rule="evenodd" d="M31.74 11.503a15.719 15.719 0 0 0-8.243-8.243c1-.787 2.258-1.26 3.629-1.26A5.874 5.874 0 0 1 33 7.874a5.846 5.846 0 0 1-1.26 3.629zM31.5 18c0 3.852-1.512 7.343-3.963 9.94l2.029 2.028a1.483 1.483 0 0 1-2.097 2.097l-2.18-2.178A14.419 14.419 0 0 1 17 32.5a14.42 14.42 0 0 1-8.276-2.603L6.561 32.06A1.5 1.5 0 1 1 4.44 29.94l2.011-2.012C4.008 25.332 2.5 21.845 2.5 18 2.5 9.992 8.992 3.5 17 3.5S31.5 9.992 31.5 18zM17 6.5C10.649 6.5 5.5 11.648 5.5 18c0 6.351 5.149 11.5 11.5 11.5S28.5 24.35 28.5 18c0-6.352-5.149-11.5-11.5-11.5zm6 13h-6a1.5 1.5 0 0 1-1.5-1.5v-8a1.5 1.5 0 0 1 3 0v6.5H23a1.5 1.5 0 0 1 0 3zM2.287 11.705A5.967 5.967 0 0 1 1 8a6 6 0 0 1 6-6c1.4 0 2.685.483 3.706 1.287a16.056 16.056 0 0 0-8.419 8.418z"/></svg>