<svg xmlns="http://www.w3.org/2000/svg" width="35" height="33"><path fill="#95E1D3" paint-order="stroke fill markers" fill-rule="evenodd" d="M34 17.5a1.5 1.5 0 0 1-1.5 1.5 1.49 1.49 0 0 1-1.02-.406l-.003.004L18.038 5.159 18 5.122 4.554 18.568a1.5 1.5 0 1 1-2.092-2.15L16.918 1.96c.273-.283.656-.46 1.08-.46h.002c.026 0 .052 0 .079.002h.012a1.983 1.983 0 0 1 .072.007c.367.04.694.212.933.468L25 7.877V6.5a1.5 1.5 0 1 1 3 0v4.378l5.598 5.598-.004.004c.25.268.406.625.406 1.02zM31 20v10.5a1.5 1.5 0 0 1-1.5 1.5h-3V20h-6v12h-14A1.5 1.5 0 0 1 5 30.5v-4-2V20L18 7l13 13zm-15.5 0h-6v6h6v-6z"/></svg>