<svg xmlns="http://www.w3.org/2000/svg" width="36" height="34"><path fill="#95E1D3" paint-order="stroke fill markers" fill-rule="evenodd" d="M32.5 33h-29A1.5 1.5 0 0 1 2 31.5v-29A1.5 1.5 0 0 1 3.5 1h29A1.5 1.5 0 0 1 34 2.5v29a1.5 1.5 0 0 1-1.5 1.5zM31 4H5v26h26V4zM8.5 5.5H14a1.5 1.5 0 0 1 0 3H9.5V13a1.5 1.5 0 1 1-3 0V7.5v-2h2zM6.5 21a1.5 1.5 0 1 1 3 0v4.5H14a1.5 1.5 0 1 1 0 3H8.5h-2v-2V21zM22 5.5h7.5V13a1.5 1.5 0 1 1-3 0V8.5H22a1.5 1.5 0 1 1 0-3zm0 20h4.5V21a1.5 1.5 0 0 1 3 0v7.5h-2H22a1.5 1.5 0 0 1 0-3z"/></svg>